<svg xmlns="http://www.w3.org/2000/svg" width="157" height="136" viewBox="0 0 157 136">
  <defs>
    <style>
      .cls-1 {
        fill: #ffdc36;
      }

      .cls-2 {
        fill: none;
      }

      .cls-3, .cls-4 {
        stroke: none;
      }

      .cls-4 {
        fill: #f20013;
      }
    </style>
  </defs>
  <g id="그룹_7" data-name="그룹 7" transform="translate(-128 -126)">
    <path id="다각형_1" data-name="다각형 1" class="cls-1" d="M73.3,9A6,6,0,0,1,83.7,9l68.109,118a6,6,0,0,1-5.2,9H10.391a6,6,0,0,1-5.2-9Z" transform="translate(128 126)"/>
    <g id="다각형_2" data-name="다각형 2" class="cls-2" transform="translate(147 146)">
      <path class="cls-3" d="M56.9,4.551a3,3,0,0,1,5.208,0L116.431,99.51a3,3,0,0,1-2.6,4.49H5.173a3,3,0,0,1-2.6-4.49Z"/>
      <path class="cls-4" d="M 59.50000381469727 10.06870269775391 L 8.621047973632812 98.99999237060547 L 110.3789520263672 98.99999237060547 L 59.50000381469727 10.06870269775391 M 59.5 3.041221618652344 C 60.51396942138672 3.041221618652344 61.52793884277344 3.544631958007812 62.10395812988281 4.55145263671875 L 116.4313430786133 99.51023101806641 C 117.5754928588867 101.5100860595703 116.1313247680664 103.9999923706055 113.8274078369141 103.9999923706055 C 113.8272705078125 103.9999923706055 113.827522277832 103.9999923706055 113.8273773193359 103.9999923706055 L 5.172622680664062 103.9999923706055 C 2.868461608886719 104.0000076293945 1.4244384765625 101.5102081298828 2.568656921386719 99.51023101806641 L 56.89604187011719 4.55145263671875 C 57.47206115722656 3.544631958007812 58.48603057861328 3.041221618652344 59.5 3.041221618652344 Z"/>
    </g>
    <circle id="타원_2" data-name="타원 2" cx="6" cy="6" r="6" transform="translate(200 226)"/>
    <rect id="사각형_8" data-name="사각형 8" width="12" height="43" rx="6" transform="translate(200 180)"/>
  </g>
</svg>
